<svg xmlns="http://www.w3.org/2000/svg" width="40" height="39" fill="none"><g clip-path="url(#a)"><path fill="#fff" fill-rule="evenodd" d="M19.94 0C8.914 0 0 8.912 0 19.937c0 8.814 5.711 16.274 13.635 18.914.99.199 1.353-.429 1.353-.957 0-.462-.032-2.046-.032-3.697-5.547 1.189-6.703-2.377-6.703-2.377-.891-2.31-2.212-2.904-2.212-2.904-1.815-1.221.132-1.221.132-1.221 2.014.132 3.071 2.046 3.071 2.046 1.783 3.037 4.655 2.179 5.81 1.65.165-1.287.694-2.178 1.255-2.673-4.424-.462-9.079-2.179-9.079-9.837 0-2.179.792-3.961 2.047-5.347-.198-.495-.892-2.542.198-5.282 0 0 1.684-.528 5.48 2.047a19.3 19.3 0 0 1 4.985-.66c1.684 0 3.4.23 4.985.66 3.797-2.575 5.48-2.047 5.48-2.047 1.09 2.74.397 4.787.199 5.282 1.287 1.386 2.047 3.168 2.047 5.347 0 7.658-4.655 9.341-9.112 9.837.726.627 1.353 1.815 1.353 3.697 0 2.673-.032 4.82-.032 5.479 0 .528.363 1.156 1.353.958 7.923-2.642 13.635-10.101 13.635-18.915C39.88 8.912 30.934 0 19.94 0" clip-rule="evenodd"/></g><defs><clipPath id="a"><path fill="#fff" d="M0 0h40v38.889H0z"/></clipPath></defs></svg>