<svg xmlns="http://www.w3.org/2000/svg" width="60" height="60" fill="none"><path fill="#000" d="M18.297 35.294a5.44 5.44 0 1 0 0-10.88 5.44 5.44 0 0 0 0 10.88M5.44 46.173a5.44 5.44 0 1 0 0-10.879 5.44 5.44 0 0 0 0 10.879m49.12 0a5.44 5.44 0 1 0 0-10.88 5.44 5.44 0 0 0 0 10.88"/><path fill="#D0021B" d="M36.695 30.084c-.174-1.818-.262-3.33-1.655-4.393-1.763-1.347-3.76-.473-6.22-1.361-2.418-.585-4.21-2.731-4.21-5.29 0-3.008 2.479-5.446 5.537-5.446a5.54 5.54 0 0 1 5.07 3.254c1.313 2.493.46 5.03 2.11 6.31 1.952 1.513 4.585.404 7.523 1.838a5.53 5.53 0 0 1 2.307 1.975c.563.853.89 1.87.89 2.963 0 2.558-1.793 4.704-4.21 5.29-2.46.887-4.458.014-6.221 1.36-1.983 1.514-.921 4.047-2.537 6.722a5.55 5.55 0 0 1-4.932 2.968c-3.058 0-5.538-2.438-5.538-5.446 0-2.186 1.309-4.07 3.197-4.938 2.938-1.434 5.571-.326 7.524-1.84 1.127-.872 1.365-2.22 1.365-3.966"/></svg>